<?xml version="1.0" encoding="UTF-8"?> <!-- Generator: Adobe Illustrator 23.0.1, SVG Export Plug-In . SVG Version: 6.00 Build 0) --> <svg xmlns="http://www.w3.org/2000/svg" xmlns:xlink="http://www.w3.org/1999/xlink" id="Layer_1" x="0px" y="0px" viewBox="0 0 391.73 55.26" xml:space="preserve"> <path fill="#8F969B" d="M19.74,14.01h6.18v7.11h-6.18v10.55c0,2.8,0.64,4.03,3.56,4.03c0.88,0,1.75-0.06,2.62-0.18v8.75 c-2.33,0-4.95,0.35-7.4,0.35c-4.9,0-10.32-0.76-10.32-9.04V21.12H3.06v-7.11h5.13V3.64h11.55V14.01z"></path> <path fill="#8F969B" d="M27.44,3.64h11.55v13.63h0.12c1.98-2.33,4.55-4.02,9.45-4.02c5.42,0,10.38,3.32,10.38,10.26v20.76H47.38 V28.41c0-3.5-0.41-5.95-3.79-5.95c-1.98,0-4.61,0.99-4.61,5.83v15.98H27.44V3.64z"></path> <path fill="#8F969B" d="M71.34,31.73c0.29,3.44,2.28,5.89,5.89,5.89c1.87,0,3.91-0.7,4.84-2.16h10.79 c-2.33,6.53-8.69,9.56-15.57,9.56c-9.68,0-16.97-5.72-16.97-15.8c0-8.81,6.41-15.98,15.98-15.98c12.01,0,17.2,6.71,17.2,18.49H71.34 z M82.42,25.73c0-2.8-2.1-5.07-5.07-5.07c-3.44,0-5.42,1.81-5.95,5.07H82.42z"></path> <path fill="#8F969B" d="M100.79,3.64h11.55v40.63h-11.55V3.64z"></path> <path fill="#8F969B" d="M130.53,45.03c-11.37,0-16.5-7.52-16.5-15.92c0-8.4,5.13-15.86,16.5-15.86c11.37,0,16.5,7.46,16.5,15.86 C147.04,37.51,141.9,45.03,130.53,45.03z M130.53,21.64c-4.37,0-4.95,4.26-4.95,7.46c0,3.21,0.58,7.52,4.95,7.52 c4.37,0,4.96-4.32,4.96-7.52C135.49,25.9,134.91,21.64,130.53,21.64z"></path> <path fill="#8F969B" d="M180.74,40.36c0,6.01-1.57,14.46-15.74,14.46c-7.17,0-14.76-1.93-15.8-10.09h11.43 c0.12,0.29,0.41,0.7,0.64,1.05c0.7,1.05,1.92,2.22,3.38,2.22c3.73,0,4.55-4.43,4.55-6.94v-2.8h-0.12c-1.87,2.68-4.67,4.2-8.11,4.2 c-8.92,0-12.95-6.65-12.95-14.75c0-7.87,4.49-14.46,13.12-14.46c3.38,0,6.59,1.34,7.93,4.43h0.12v-3.67h11.55V40.36z M164.76,35.05 c4.25,0,4.72-4.08,4.72-7.46c0-3.33-1.63-5.95-5.02-5.95c-3.26,0-4.9,2.8-4.9,6.01C159.57,31.09,160.62,35.05,164.76,35.05z"></path> <path fill="#8F969B" d="M198.57,45.03c-11.37,0-16.5-7.52-16.5-15.92c0-8.4,5.13-15.86,16.5-15.86c11.37,0,16.5,7.46,16.5,15.86 C215.08,37.51,209.94,45.03,198.57,45.03z M198.57,21.64c-4.37,0-4.96,4.26-4.96,7.46c0,3.21,0.58,7.52,4.96,7.52 c4.37,0,4.96-4.32,4.96-7.52C203.53,25.9,202.95,21.64,198.57,21.64z"></path> <path fill="#FF474C" d="M240.92,22.81c-0.06-0.99-0.59-1.75-1.34-2.27c-0.7-0.58-1.63-0.88-2.56-0.88c-1.63,0-3.5,0.35-3.5,2.33 c0,0.88,0.7,1.28,1.34,1.57c1.93,0.82,6.3,1.05,10.15,2.33c3.85,1.23,7.23,3.5,7.23,8.46c0,8.4-8.05,10.67-15.4,10.67 c-7.11,0-14.93-2.86-15.1-10.67h11.02c0.06,1.05,0.52,1.92,1.4,2.68c0.58,0.52,1.69,0.87,3.09,0.87c1.52,0,3.91-0.58,3.91-2.33 c0-1.75-0.99-2.27-6.36-3.21c-8.8-1.52-12.36-4.31-12.36-9.5c0-7.64,8.22-9.62,14.29-9.62c6.53,0,14.4,1.81,14.7,9.56H240.92z"></path> <path fill="#FF474C" d="M253.84,14.01h11.14v4.02h0.12c2.33-3.5,5.71-4.78,9.91-4.78c3.26,0,6.76,1.69,8.17,4.72 c0.46-0.35,2.8-4.72,10.32-4.72c7.76,0,10.38,5.36,10.38,10.26v20.76h-11.54V27.88c0-2.86-0.29-5.42-3.79-5.42 c-2.92,0-3.91,2.27-3.91,5.42v16.39h-11.54V27.88c0-2.86-0.29-5.42-3.79-5.42c-2.91,0-3.91,2.27-3.91,5.42v16.39h-11.55V14.01z"></path> <rect x="305.83" y="14.01" fill="#FF474C" width="11.55" height="30.26"></rect> <path fill="#FF474C" d="M335.1,14.01h6.18v7.11h-6.18v10.55c0,2.8,0.64,4.03,3.56,4.03c0.87,0,1.75-0.06,2.62-0.18v8.75 c-2.33,0-4.96,0.35-7.4,0.35c-4.9,0-10.33-0.76-10.33-9.04V21.12h-5.13v-7.11h5.13V3.64h11.55V14.01z"></path> <path fill="#FF474C" d="M342.8,3.64h11.54v13.63h0.12c1.98-2.33,4.55-4.02,9.44-4.02c5.42,0,10.38,3.32,10.38,10.26v20.76h-11.55 V28.41c0-3.5-0.41-5.95-3.79-5.95c-1.98,0-4.6,0.99-4.6,5.83v15.98H342.8V3.64z"></path> <path fill="#FF474C" d="M305.76,6.27c0-3.22,2.61-5.83,5.83-5.83c3.22,0,5.84,2.61,5.84,5.83c0,3.22-2.61,5.84-5.84,5.84 C308.37,12.1,305.76,9.49,305.76,6.27z"></path> <path fill="#FF474C" d="M377,38.92c0-3.22,2.61-5.84,5.84-5.84c3.22,0,5.83,2.61,5.83,5.84c0,3.22-2.61,5.84-5.83,5.84 C379.61,44.75,377,42.14,377,38.92z"></path> </svg> 